<?xml version="1.0" encoding="UTF-8" standalone="no"?>
<svg
   width="154"
   height="153.50662"
   xml:space="preserve"
   overflow="hidden"
   version="1.1"
   id="svg450"
   xmlns="http://www.w3.org/2000/svg"
   xmlns:svg="http://www.w3.org/2000/svg"><defs
     id="defs454" /><g
     transform="matrix(0.2299437,0,0,0.2299437,-126.97683,-19.823018)"
     id="g448"><path
       d="m 803.792,253.5 v 58.961 h -4.583 L 799.208,253.5 Z m 11.458,54.378 -13.75,27.5 -13.75,-27.5 z"
       id="path424" /><path
       d="m 636.5,88.4998 h 330 V 220.5 l -165,33 -165,-33 z"
       stroke="#000000"
       stroke-width="4.58333"
       stroke-miterlimit="8"
       fill="#ffffff"
       fill-rule="evenodd"
       id="path426" /><text
       font-family="Arial, Arial_MSFontService, sans-serif"
       font-weight="700"
       font-size="37px"
       transform="translate(725.505,168)"
       id="text428">BYPASS</text><path
       d="m 554.5,614 c 0,-15.188 12.312,-27.5 27.5,-27.5 h 440 c 15.19,0 27.5,12.312 27.5,27.5 v 110 c 0,15.188 -12.31,27.5 -27.5,27.5 H 582 c -15.188,0 -27.5,-12.312 -27.5,-27.5 z"
       stroke="#000000"
       stroke-width="4.58333"
       stroke-miterlimit="8"
       fill="#ffffff"
       fill-rule="evenodd"
       id="path430" /><text
       font-family="Arial, Arial_MSFontService, sans-serif"
       font-style="italic"
       font-weight="400"
       font-size="37px"
       transform="translate(636.989,660)"
       id="text432">Machine Running In</text><text
       font-family="Arial, Arial_MSFontService, sans-serif"
       font-style="italic"
       font-weight="400"
       font-size="37px"
       transform="translate(689.422,704)"
       id="text434">Bypass Mode</text><rect
       x="554.5"
       y="335.5"
       width="495"
       height="165"
       stroke="#000000"
       stroke-width="4.58333"
       stroke-miterlimit="8"
       fill="#ffffff"
       id="rect436" /><text
       font-family="Arial, Arial_MSFontService, sans-serif"
       font-weight="400"
       font-size="37px"
       transform="translate(657.041,432)"
       id="text438">START </text><text
       font-family="Arial, Arial_MSFontService, sans-serif"
       font-weight="400"
       font-size="37px"
       transform="translate(787.666,432)"
       id="text440">Depositor</text><path
       d="m 803.792,500.5 v 62.877 h -4.583 L 799.208,500.5 Z m 11.458,58.293 -13.75,27.501 -13.75,-27.5 z"
       id="path442" /><path
       d="m 1053.5,233.496 29,-28.996 h 107 l 29,28.996 v 41.008 l -29,28.996 h -107 l -29,-28.996 z"
       stroke="#000000"
       stroke-width="6.875"
       stroke-miterlimit="8"
       fill="#ffffff"
       fill-rule="evenodd"
       id="path444" /><text
       font-family="Arial, Arial_MSFontService, sans-serif"
       font-weight="700"
       font-size="37px"
       transform="translate(1125.23,267)"
       id="text446">1</text></g></svg>
