<?xml version="1.0" encoding="UTF-8" standalone="no"?>
<svg
   width="460"
   height="663.88879"
   xml:space="preserve"
   overflow="hidden"
   version="1.1"
   id="svg833"
   xmlns="http://www.w3.org/2000/svg"
   xmlns:svg="http://www.w3.org/2000/svg"><defs
     id="defs837" /><g
     transform="matrix(0.23901279,0,0,0.23901279,-14.390586,-24.907125)"
     id="g831"><path
       d="M 0,2.29167 H -82.4999 L -80.2083,0 v 246.877 l -2.2916,-2.292 h 65.6289 v 4.584 H -84.7916 V -2.29167 H 0 Z m -21.4543,230.83533 27.49997,13.75 -27.49997,13.75 z"
       transform="matrix(-1,0,0,1,1834.55,925.5)"
       id="path669" /><path
       d="m 145.5,2714.5 h 330 v 132 l -165,33 -165,-33 z"
       stroke="#000000"
       stroke-width="4.58333"
       stroke-miterlimit="8"
       fill="#ffffff"
       fill-rule="evenodd"
       id="path671" /><text
       font-family="Arial, Arial_MSFontService, sans-serif"
       font-weight="400"
       font-size="37px"
       transform="translate(235.246,2750)"
       id="text673">TARGET </text><text
       font-family="Arial, Arial_MSFontService, sans-serif"
       font-weight="400"
       font-size="37px"
       transform="translate(236.392,2794)"
       id="text675">WEIGHT </text><text
       font-family="Arial, Arial_MSFontService, sans-serif"
       font-weight="400"
       font-size="37px"
       transform="translate(248.423,2838)"
       id="text677">SETUP</text><path
       d="m 637.5,106.5 h 330 v 132 l -165,33 -165,-33 z"
       stroke="#000000"
       stroke-width="4.58333"
       stroke-miterlimit="8"
       fill="#ffffff"
       fill-rule="evenodd"
       id="path679" /><text
       font-family="Arial, Arial_MSFontService, sans-serif"
       font-weight="400"
       font-size="37px"
       transform="translate(733.284,186)"
       id="text681">RECIPE</text><path
       d="M 0,-2.29167 H 254.913 V 70.0694 H 250.33 V 0 l 2.291,2.29167 H 0 Z m 266.371,67.77777 -13.75,27.5 -13.75,-27.5 z"
       transform="matrix(-1,0,0,1,563.121,465.5)"
       id="path683" /><path
       d="m 1056.5,463.208 h 269.78 v 72.361 h -4.59 V 465.5 l 2.3,2.292 H 1056.5 Z m 281.24,67.778 -13.75,27.5 -13.75,-27.5 z"
       id="path685" /><rect
       x="1082.5"
       y="2407.5"
       width="495"
       height="165"
       stroke="#000000"
       stroke-width="4.58333"
       stroke-miterlimit="8"
       fill="#ffffff"
       id="rect687" /><text
       font-family="Arial, Arial_MSFontService, sans-serif"
       font-weight="400"
       font-size="37px"
       transform="translate(1279.98,2482)"
       id="text689">SAVE</text><text
       font-family="Arial, Arial_MSFontService, sans-serif"
       font-weight="400"
       font-size="37px"
       transform="translate(1260.78,2526)"
       id="text691">RECIPE</text><path
       d="m 1332.31,2572.5 v 73.04 H 310.5 l 2.291,-2.29 v 47.83 h -4.583 v -50.12 H 1330.02 l -2.3,2.29 v -70.75 z m -1008.06,114 -13.75,27.5 -13.75,-27.5 z"
       id="path693" /><path
       d="m 1325.58,723.5 v 62.25 H 646.999 l 2.292,-2.291 V 925.92 l -2.292,-2.292 h 59.584 v 4.584 H 644.707 V 781.167 h 678.583 l -2.29,2.292 V 723.5 Z M 702,912.17 729.5,925.92 702,939.67 Z"
       id="path695" /><path
       d="m 804.792,271.5 v 40.106 h -4.583 L 800.208,271.5 Z m 11.458,35.523 -13.749,27.5 -13.751,-27.5 z"
       id="path697" /><path
       d="m 312.792,723.5 v 54.712 h -4.584 V 723.5 Z m 11.458,50.128 -13.75,27.5 -13.75,-27.5 z"
       id="path699" /><path
       d="M 561.5,468 808,337.5 1054.5,468 808,598.5 Z"
       stroke="#000000"
       stroke-width="4.58333"
       stroke-miterlimit="8"
       fill="#ffffff"
       fill-rule="evenodd"
       id="path701" /><text
       font-family="Arial, Arial_MSFontService, sans-serif"
       font-weight="400"
       font-size="37px"
       transform="translate(772.376,457)"
       id="text703">New</text><text
       font-family="Arial, Arial_MSFontService, sans-serif"
       font-weight="400"
       font-size="37px"
       transform="translate(741.438,501)"
       id="text705">Recipe?</text><text
       font-family="Arial, Arial_MSFontService, sans-serif"
       font-weight="700"
       font-size="41px"
       transform="translate(438.627,453)"
       id="text707">NO</text><text
       font-family="Arial, Arial_MSFontService, sans-serif"
       font-weight="700"
       font-size="41px"
       transform="translate(1092.68,451)"
       id="text709">YES</text><path
       d="m 1224.5,923.208 h 85.76 v 4.584 h -85.76 z m 81.18,-11.458 27.5,13.75 -27.5,13.75 z"
       id="path711" /><path
       d="M 310.5,965.5 V 2713.86"
       stroke="#000000"
       stroke-width="4.58333"
       stroke-miterlimit="8"
       fill="none"
       fill-rule="evenodd"
       id="path713" /><rect
       x="729.5"
       y="843.5"
       width="495"
       height="165"
       stroke="#000000"
       stroke-width="4.58333"
       stroke-miterlimit="8"
       fill="#ffffff"
       id="rect715" /><text
       font-family="Arial, Arial_MSFontService, sans-serif"
       font-weight="400"
       font-size="37px"
       transform="translate(833.993,917)"
       id="text717">PORTION MOVE </text><text
       font-family="Arial, Arial_MSFontService, sans-serif"
       font-weight="400"
       font-size="37px"
       transform="translate(791.024,961)"
       id="text719">LENGTH AND SPEED</text><rect
       x="1339.5"
       y="843.5"
       width="495"
       height="165"
       stroke="#000000"
       stroke-width="4.58333"
       stroke-miterlimit="8"
       fill="#ffffff"
       id="rect721" /><text
       font-family="Arial, Arial_MSFontService, sans-serif"
       font-weight="400"
       font-size="37px"
       transform="translate(1400.75,917)"
       id="text723">HOPPER LOW / HIGH </text><text
       font-family="Arial, Arial_MSFontService, sans-serif"
       font-weight="400"
       font-size="37px"
       transform="translate(1513.34,961)"
       id="text725">WEIGHT</text><rect
       x="737.5"
       y="1090.5"
       width="495"
       height="165"
       stroke="#000000"
       stroke-width="4.58333"
       stroke-miterlimit="8"
       fill="#ffffff"
       id="rect727" /><text
       font-family="Arial, Arial_MSFontService, sans-serif"
       font-weight="400"
       font-size="37px"
       transform="translate(793.217,1164)"
       id="text729">BUCKET OPEN / FALL </text><text
       font-family="Arial, Arial_MSFontService, sans-serif"
       font-weight="400"
       font-size="37px"
       transform="translate(940.732,1208)"
       id="text731">TIME</text><rect
       x="1333.5"
       y="1090.5"
       width="495"
       height="165"
       stroke="#000000"
       stroke-width="4.58333"
       stroke-miterlimit="8"
       fill="#ffffff"
       id="rect733" /><text
       font-family="Arial, Arial_MSFontService, sans-serif"
       font-weight="400"
       font-size="37px"
       transform="translate(1428.51,1142)"
       id="text735">CARPET OFFSET, </text><text
       font-family="Arial, Arial_MSFontService, sans-serif"
       font-weight="400"
       font-size="37px"
       transform="translate(1381.53,1186)"
       id="text737">STROKE LENGTH AND </text><text
       font-family="Arial, Arial_MSFontService, sans-serif"
       font-weight="400"
       font-size="37px"
       transform="translate(1444.85,1230)"
       id="text739">EXTEND RATIO</text><path
       d="M 0,-2.29167 H 93.0503 V 249.169 h -61.875 v -4.583 h 59.5833 l -2.2917,2.292 V 0 l 2.2917,2.29167 H 0 Z M 35.7587,260.628 8.25866,246.878 35.7587,233.128 Z"
       transform="matrix(-1,0,0,1,737.759,1172.5)"
       id="path741" /><path
       d="M 8.18493e-6,-2.29167 78.1282,-2.29139 78.1281,2.29195 -8.18493e-6,2.29167 Z M 73.5449,-13.7497 101.045,3.60892e-4 73.5448,13.7503 Z"
       transform="matrix(-1,0,0,1,1333.54,1172.5)"
       id="path743" /><path
       d="M 2.29081,-0.0624798 3.69062,51.2613 -0.891006,51.3863 -2.29081,0.0624798 Z M 15.0197,46.3673 2.02461,74.232 -12.47,47.1171 Z"
       transform="matrix(-1,0,0,1,1329.52,2333.5)"
       id="path745" /><rect
       x="62.500099"
       y="558.5"
       width="495"
       height="165"
       stroke="#000000"
       stroke-width="4.58333"
       stroke-miterlimit="8"
       fill="#ffffff"
       id="rect747" /><text
       font-family="Arial, Arial_MSFontService, sans-serif"
       font-weight="400"
       font-size="37px"
       transform="translate(158.475,632)"
       id="text749">ENTER RECIPE #</text><text
       font-family="Arial, Arial_MSFontService, sans-serif"
       font-weight="400"
       font-size="37px"
       transform="translate(226.08,676)"
       id="text751">(RECALL)</text><rect
       x="1076.5"
       y="558.5"
       width="495"
       height="165"
       stroke="#000000"
       stroke-width="4.58333"
       stroke-miterlimit="8"
       fill="#ffffff"
       id="rect753" /><text
       font-family="Arial, Arial_MSFontService, sans-serif"
       font-weight="400"
       font-size="37px"
       transform="translate(1171.97,632)"
       id="text755">ENTER RECIPE #</text><text
       font-family="Arial, Arial_MSFontService, sans-serif"
       font-weight="400"
       font-size="37px"
       transform="translate(1268.5,676)"
       id="text757">(NEW)</text><rect
       x="62.500099"
       y="800.5"
       width="495"
       height="165"
       stroke="#000000"
       stroke-width="4.58333"
       stroke-miterlimit="8"
       fill="#ffffff"
       id="rect759" /><text
       font-family="Arial, Arial_MSFontService, sans-serif"
       font-weight="400"
       font-size="37px"
       transform="translate(191.991,875)"
       id="text761">LOAD SAVED</text><text
       font-family="Arial, Arial_MSFontService, sans-serif"
       font-weight="400"
       font-size="37px"
       transform="translate(241.262,919)"
       id="text763">RECIPE</text><rect
       x="729.5"
       y="1336.5"
       width="495"
       height="165"
       stroke="#000000"
       stroke-width="4.58333"
       stroke-miterlimit="8"
       fill="#ffffff"
       id="rect765" /><text
       font-family="Arial, Arial_MSFontService, sans-serif"
       font-weight="400"
       font-size="37px"
       transform="translate(829.073,1411)"
       id="text767">RAKE / SPINNER </text><text
       font-family="Arial, Arial_MSFontService, sans-serif"
       font-weight="400"
       font-size="37px"
       transform="translate(840.531,1455)"
       id="text769">MOTOR SPEED</text><rect
       x="551.5"
       y="1795.5"
       width="495"
       height="165"
       stroke="#000000"
       stroke-width="4.58333"
       stroke-miterlimit="8"
       fill="#ffffff"
       id="rect771" /><text
       font-family="Arial, Arial_MSFontService, sans-serif"
       font-weight="400"
       font-size="37px"
       transform="translate(621.929,1870)"
       id="text773">FEED</text><text
       font-family="Arial, Arial_MSFontService, sans-serif"
       font-weight="400"
       font-size="37px"
       transform="translate(719.898,1870)"
       id="text775">-</text><text
       font-family="Arial, Arial_MSFontService, sans-serif"
       font-weight="400"
       font-size="37px"
       transform="translate(731.929,1870)"
       id="text777">Z </text><text
       font-family="Arial, Arial_MSFontService, sans-serif"
       font-weight="400"
       font-size="37px"
       transform="translate(764.585,1870)"
       id="text779">CONVEYOR</text><text
       font-family="Arial, Arial_MSFontService, sans-serif"
       font-weight="400"
       font-size="37px"
       transform="translate(735.939,1914)"
       id="text781">SPEED</text><text
       font-family="'Arial Narrow', 'Arial Narrow_MSFontService', sans-serif"
       font-weight="700"
       font-stretch="condensed"
       font-size="41px"
       transform="translate(986.978,1676)"
       id="text783">YES</text><text
       font-family="'Arial Narrow', 'Arial Narrow_MSFontService', sans-serif"
       font-weight="700"
       font-stretch="condensed"
       font-size="41px"
       transform="translate(1252.54,1887)"
       id="text785">NO</text><path
       d="m 1082.5,1698.5 247.5,-132 247.5,132 -247.5,132 z"
       stroke="#000000"
       stroke-width="4.58333"
       stroke-miterlimit="8"
       fill="#ffffff"
       fill-rule="evenodd"
       id="path787" /><text
       font-family="Arial, Arial_MSFontService, sans-serif"
       font-weight="400"
       font-size="37px"
       transform="translate(1179.14,1690)"
       id="text789">FEED</text><text
       font-family="Arial, Arial_MSFontService, sans-serif"
       font-weight="400"
       font-size="37px"
       transform="translate(1277.11,1690)"
       id="text791">-</text><text
       font-family="Arial, Arial_MSFontService, sans-serif"
       font-weight="400"
       font-size="37px"
       transform="translate(1289.14,1690)"
       id="text793">Z Conveyor </text><text
       font-family="Arial, Arial_MSFontService, sans-serif"
       font-weight="400"
       font-size="37px"
       transform="translate(1251.03,1734)"
       id="text795">Enabled?</text><rect
       x="530.5"
       y="1533.5"
       width="1452"
       height="561"
       stroke="#e97132"
       stroke-width="4.58333"
       stroke-linejoin="round"
       stroke-miterlimit="10"
       stroke-dasharray="18.3333, 13.75"
       fill="none"
       id="rect797" /><path
       d="m 1224.5,1417.21 h 107.72 v 126.06 h -4.58 V 1419.5 l 2.29,2.29 H 1224.5 Z m 119.18,121.47 -13.75,27.5 -13.75,-27.5 z"
       id="path799" /><rect
       x="1082.5"
       y="2168.5"
       width="495"
       height="165"
       stroke="#000000"
       stroke-width="4.58333"
       stroke-miterlimit="8"
       fill="#ffffff"
       id="rect801" /><text
       font-family="Arial, Arial_MSFontService, sans-serif"
       font-weight="400"
       font-size="37px"
       transform="translate(1163.1,2243)"
       id="text803">ENABLE / DISABLE</text><text
       font-family="Arial, Arial_MSFontService, sans-serif"
       font-weight="400"
       font-size="37px"
       transform="translate(1226.96,2287)"
       id="text805">SKIP MODE</text><path
       d="M 0,-2.29167 H 285.646 V 74.5928 h -4.583 V 0 l 2.291,2.29167 H 0 Z m 297.104,72.30117 -13.75,27.5 -13.75,-27.5 z"
       transform="matrix(-1,0,0,1,1081.85,1698.5)"
       id="path807" /><path
       d="M 0,-2.29167 H 106.24 V 530.854 l -2.291,-2.291 h 81.031 v 4.583 H 101.657 V 0 l 2.292,2.29167 H 0 Z m 180.397,519.39567 27.5,13.75 -27.5,13.75 z"
       transform="matrix(0,1,1,0,798.5,1960.5)"
       id="path809" /><path
       d="m 1331.79,1830.5 0.47,315.49 h -4.59 l -0.46,-315.49 z m 11.92,310.89 -13.71,27.52 -13.79,-27.48 z"
       id="path811" /><rect
       x="1431.5"
       y="1843.5"
       width="528"
       height="231"
       stroke="#000000"
       stroke-width="4.58333"
       stroke-miterlimit="8"
       stroke-dasharray="18.3333, 13.75"
       fill="#ffffff"
       id="rect813" /><text
       font-family="Arial, Arial_MSFontService, sans-serif"
       font-style="italic"
       font-weight="400"
       font-size="37px"
       transform="translate(1497.14,1929)"
       id="text815">Note:</text><text
       font-family="Arial, Arial_MSFontService, sans-serif"
       font-style="italic"
       font-weight="400"
       font-size="37px"
       transform="translate(1595.69,1929)"
       id="text817">Applies</text><text
       font-family="Arial, Arial_MSFontService, sans-serif"
       font-style="italic"
       font-weight="400"
       font-size="37px"
       transform="translate(1726.88,1929)"
       id="text819">only</text><text
       font-family="Arial, Arial_MSFontService, sans-serif"
       font-style="italic"
       font-weight="400"
       font-size="37px"
       transform="translate(1804.8,1929)"
       id="text821">when</text><text
       font-family="Arial, Arial_MSFontService, sans-serif"
       font-style="italic"
       font-weight="400"
       font-size="37px"
       transform="translate(1526.66,1973)"
       id="text823">FEED</text><text
       font-family="Arial, Arial_MSFontService, sans-serif"
       font-style="italic"
       font-weight="400"
       font-size="37px"
       transform="translate(1624.63,1973)"
       id="text825">-</text><text
       font-family="Arial, Arial_MSFontService, sans-serif"
       font-style="italic"
       font-weight="400"
       font-size="37px"
       transform="translate(1636.66,1973)"
       id="text827">Z Conveyor is </text><text
       font-family="Arial, Arial_MSFontService, sans-serif"
       font-style="italic"
       font-weight="400"
       font-size="37px"
       transform="translate(1624.06,2017)"
       id="text829">enabled.</text></g></svg>
