<?xml version="1.0" encoding="UTF-8" standalone="no"?>
<svg
   width="339.99994"
   height="604.24902"
   xml:space="preserve"
   overflow="hidden"
   version="1.1"
   id="svg425"
   xmlns="http://www.w3.org/2000/svg"
   xmlns:svg="http://www.w3.org/2000/svg"><defs
     id="defs429" /><g
     transform="matrix(0.2958193,0,0,0.2958193,-156.66217,-75.199732)"
     id="g423"><rect
       x="1135.5"
       y="1378.5"
       width="495"
       height="165"
       stroke="#000000"
       stroke-width="4.58333"
       stroke-miterlimit="8"
       fill="#ffffff"
       id="rect299" /><text
       font-family="Arial, Arial_MSFontService, sans-serif"
       font-weight="400"
       font-size="37px"
       transform="translate(1191.41,1453)"
       id="text301">RESET E</text><text
       font-family="Arial, Arial_MSFontService, sans-serif"
       font-weight="400"
       font-size="37px"
       transform="translate(1348.96,1453)"
       id="text303">-</text><text
       font-family="Arial, Arial_MSFontService, sans-serif"
       font-weight="400"
       font-size="37px"
       transform="translate(1360.99,1453)"
       id="text305">STOPS AND</text><text
       font-family="Arial, Arial_MSFontService, sans-serif"
       font-weight="400"
       font-size="37px"
       transform="translate(1236.39,1497)"
       id="text307">CLOSE GUARDS</text><path
       d="M 0,-2.29167 H 59.767 V 363.935 H 55.1837 V 0 l 2.2917,2.29167 H 0 Z m 71.2254,361.64267 -13.75,27.5 -13.75,-27.5 z"
       transform="matrix(0,-1,-1,0,1383.35,1378.98)"
       id="path309" /><text
       font-family="Arial, Arial_MSFontService, sans-serif"
       font-weight="700"
       font-size="41px"
       transform="translate(1095.7,1915)"
       id="text311">YES</text><text
       font-family="Arial, Arial_MSFontService, sans-serif"
       font-weight="700"
       font-size="41px"
       transform="translate(846.717,2097)"
       id="text313">NO</text><path
       d="m 783.792,421.5 v 45.967 h -4.584 V 421.5 Z m 11.458,41.383 -13.75,27.5 -13.75,-27.499 z"
       id="path315" /><path
       d="m 783.792,936.5 v 45.967 h -4.584 V 936.5 Z m 11.458,41.383 -13.75,27.497 -13.75,-27.497 z"
       id="path317" /><path
       d="M 2.29146,-0.0305145 2.79111,37.4899 -1.79182,37.5509 -2.29146,0.0305145 Z M 14.1874,32.7544 0.80479,60.435 -13.3102,33.1206 Z"
       transform="matrix(-1,0,0,1,782.305,2069.5)"
       id="path319" /><path
       d="m 616.5,256.5 h 330 v 132 l -165,33 -165,-33 z"
       stroke="#000000"
       stroke-width="4.58333"
       stroke-miterlimit="8"
       fill="#ffffff"
       fill-rule="evenodd"
       id="path321" /><text
       font-family="Arial, Arial_MSFontService, sans-serif"
       font-weight="400"
       font-size="37px"
       transform="translate(690.318,336)"
       id="text323">START UP</text><text
       font-family="Arial, Arial_MSFontService, sans-serif"
       font-weight="700"
       font-size="41px"
       transform="translate(1066.22,1665)"
       id="text325">FLASHING</text><text
       font-family="Arial, Arial_MSFontService, sans-serif"
       font-weight="700"
       font-size="41px"
       transform="translate(811.995,1780)"
       id="text327">SOLID</text><path
       d="M 0,-2.29167 H 356.143 V 45.1762 H 351.56 V 0 l 2.292,2.29167 H 0 Z m 367.602,42.88447 -13.75,27.5 -13.75,-27.5 z"
       transform="matrix(1,0,0,-1,1029.5,1611.59)"
       id="path329" /><path
       d="m 783.791,1403.48 0.563,53.15 -4.583,0.05 -0.563,-53.16 z m 11.972,48.44 -13.458,27.65 -14.041,-27.35 z"
       id="path331" /><path
       d="m 784.792,1743.5 v 40.78 h -4.584 v -40.78 z m 11.458,36.2 -13.75,27.5 -13.75,-27.5 z"
       id="path333" /><path
       d="m 534.5,1613.5 246.5,-130 246.5,130 -246.5,130 z"
       stroke="#000000"
       stroke-width="4.58333"
       stroke-miterlimit="8"
       fill="#ffffff"
       fill-rule="evenodd"
       id="path335" /><text
       font-family="Arial, Arial_MSFontService, sans-serif"
       font-weight="400"
       font-size="41px"
       transform="translate(634.117,1602)"
       id="text337">Machine Enable</text><text
       font-family="Arial, Arial_MSFontService, sans-serif"
       font-weight="400"
       font-size="41px"
       transform="translate(642.138,1652)"
       id="text339">Light Flashing?</text><path
       d="M 534.5,1941 781,1810.5 1027.5,1941 781,2071.5 Z"
       stroke="#000000"
       stroke-width="4.58333"
       stroke-miterlimit="8"
       fill="#ffffff"
       fill-rule="evenodd"
       id="path341" /><text
       font-family="Arial, Arial_MSFontService, sans-serif"
       font-weight="400"
       font-size="41px"
       transform="translate(684.534,1928)"
       id="text343">Any Active</text><text
       font-family="Arial, Arial_MSFontService, sans-serif"
       font-weight="400"
       font-size="41px"
       transform="translate(706.305,1978)"
       id="text345">Alarms?</text><path
       d="m 1252.5,2129.5 h 330 v 132 l -165,33 -165,-33 z"
       stroke="#000000"
       stroke-width="4.58333"
       stroke-miterlimit="8"
       fill="#ffffff"
       fill-rule="evenodd"
       id="path347" /><text
       font-family="Arial, Arial_MSFontService, sans-serif"
       font-weight="400"
       font-size="37px"
       transform="translate(1354.15,2187)"
       id="text349">ALARM</text><text
       font-family="Arial, Arial_MSFontService, sans-serif"
       font-weight="400"
       font-size="37px"
       transform="translate(1292,2231)"
       id="text351">DESCRIPTION</text><path
       d="m 616.5,2129.5 h 330 v 132 l -165,33 -165,-33 z"
       stroke="#000000"
       stroke-width="4.58333"
       stroke-miterlimit="8"
       fill="#ffffff"
       fill-rule="evenodd"
       id="path353" /><text
       font-family="Arial, Arial_MSFontService, sans-serif"
       font-weight="400"
       font-size="37px"
       transform="translate(726.125,2187)"
       id="text355">MODE</text><text
       font-family="Arial, Arial_MSFontService, sans-serif"
       font-weight="400"
       font-size="37px"
       transform="translate(709.51,2231)"
       id="text357">SELECT</text><path
       d="m 1029.5,1936.21 h 391.14 v 170.6 h -4.58 V 1938.5 l 2.29,2.29 H 1029.5 Z m 402.6,166.01 -13.75,27.5 -13.75,-27.5 z"
       id="path359" /><rect
       x="567.5"
       y="771.5"
       width="429"
       height="165"
       stroke="#000000"
       stroke-width="4.58333"
       stroke-miterlimit="8"
       fill="#ffffff"
       id="rect361" /><text
       font-family="Arial, Arial_MSFontService, sans-serif"
       font-weight="400"
       font-size="37px"
       transform="translate(711.802,846)"
       id="text363">POWER</text><text
       font-family="Arial, Arial_MSFontService, sans-serif"
       font-weight="400"
       font-size="37px"
       transform="translate(755.642,890)"
       id="text365">UP</text><path
       d="m 1168.5,518 c 0,-15.188 12.31,-27.5 27.5,-27.5 h 374 c 15.19,0 27.5,12.312 27.5,27.5 v 110 c 0,15.188 -12.31,27.5 -27.5,27.5 h -374 c -15.19,0 -27.5,-12.312 -27.5,-27.5 z"
       stroke="#000000"
       stroke-width="4.58333"
       stroke-miterlimit="8"
       fill="#ffffff"
       fill-rule="evenodd"
       id="path367" /><text
       font-family="Arial, Arial_MSFontService, sans-serif"
       font-style="italic"
       font-weight="400"
       font-size="46px"
       transform="translate(1213.75,562)"
       id="text369">Verify Air Supply</text><text
       font-family="Arial, Arial_MSFontService, sans-serif"
       font-style="italic"
       font-weight="400"
       font-size="46px"
       transform="translate(1324.03,617)"
       id="text371">Is ON</text><path
       d="m 567.5,518 c 0,-15.188 12.312,-27.5 27.5,-27.5 h 374 c 15.188,0 27.5,12.312 27.5,27.5 v 110 c 0,15.188 -12.312,27.5 -27.5,27.5 H 595 c -15.188,0 -27.5,-12.312 -27.5,-27.5 z"
       stroke="#000000"
       stroke-width="4.58333"
       stroke-miterlimit="8"
       fill="#ffffff"
       fill-rule="evenodd"
       id="path373" /><text
       font-family="Arial, Arial_MSFontService, sans-serif"
       font-style="italic"
       font-weight="400"
       font-size="46px"
       transform="translate(722.676,535)"
       id="text375">Verify </text><text
       font-family="Arial, Arial_MSFontService, sans-serif"
       font-style="italic"
       font-weight="400"
       font-size="46px"
       transform="translate(665.682,590)"
       id="text377">Mechanical</text><text
       font-family="Arial, Arial_MSFontService, sans-serif"
       font-style="italic"
       font-weight="400"
       font-size="46px"
       transform="translate(655.37,645)"
       id="text379">Reassembly</text><path
       d="m 996.5,570.208 h 149.43 v 4.584 H 996.5 Z m 144.85,-11.458 27.5,13.75 -27.5,13.75 z"
       id="path381" /><path
       d="m 567.5,1033 c 0,-15.19 12.312,-27.5 27.5,-27.5 h 374 c 15.188,0 27.5,12.31 27.5,27.5 v 110 c 0,15.19 -12.312,27.5 -27.5,27.5 H 595 c -15.188,0 -27.5,-12.31 -27.5,-27.5 z"
       stroke="#000000"
       stroke-width="4.58333"
       stroke-miterlimit="8"
       fill="#ffffff"
       fill-rule="evenodd"
       id="path383" /><text
       font-family="Arial, Arial_MSFontService, sans-serif"
       font-style="italic"
       font-weight="400"
       font-size="46px"
       transform="translate(739.027,1078)"
       id="text385">HMI</text><text
       font-family="Arial, Arial_MSFontService, sans-serif"
       font-style="italic"
       font-weight="400"
       font-size="46px"
       transform="translate(687.167,1133)"
       id="text387">Initializes</text><path
       d="m 783.792,1170.5 v 45 h -4.584 v -45 z m 11.458,40.42 -13.75,27.5 -13.75,-27.5 z"
       id="path389" /><rect
       x="567.5"
       y="1238.5"
       width="429"
       height="165"
       stroke="#000000"
       stroke-width="4.58333"
       stroke-miterlimit="8"
       fill="#ffffff"
       id="rect391" /><text
       font-family="Arial, Arial_MSFontService, sans-serif"
       font-weight="400"
       font-size="37px"
       transform="translate(718.677,1291)"
       id="text393">PRESS</text><text
       font-family="Arial, Arial_MSFontService, sans-serif"
       font-weight="700"
       font-size="37px"
       transform="translate(695.76,1335)"
       id="text395">MACHINE</text><text
       font-family="Arial, Arial_MSFontService, sans-serif"
       font-weight="700"
       font-size="37px"
       transform="translate(705.798,1379)"
       id="text397">ENABLE</text><path
       d="m 1385.14,655.5 v 60.763 H 781.5 l 2.291,-2.291 v 35.554 h -4.583 V 711.68 h 603.642 l -2.29,2.292 V 655.5 Z m -589.89,89.442 -13.75,27.5 -13.75,-27.5 z"
       id="path399" /><path
       d="m 783.792,655.5 v 94.026 h -4.584 V 655.5 Z m 11.458,89.442 -13.75,27.5 -13.75,-27.5 z"
       id="path401" /><path
       d="m 1087.5,312.496 29,-28.996 h 107 l 29,28.996 v 41.008 l -29,28.996 h -107 l -29,-28.996 z"
       stroke="#000000"
       stroke-width="6.875"
       stroke-miterlimit="8"
       fill="#ffffff"
       fill-rule="evenodd"
       id="path403" /><text
       font-family="Arial, Arial_MSFontService, sans-serif"
       font-weight="700"
       font-size="37px"
       transform="translate(1159.66,346)"
       id="text405">1</text><path
       d="m 1090.5,962.496 29,-28.996 h 107 l 29,28.996 v 41.004 l -29,29 h -107 l -29,-29 z"
       stroke="#000000"
       stroke-width="6.875"
       stroke-miterlimit="8"
       fill="#ffffff"
       fill-rule="evenodd"
       id="path407" /><text
       font-family="Arial, Arial_MSFontService, sans-serif"
       font-weight="700"
       font-size="37px"
       transform="translate(1162.22,997)"
       id="text409">2</text><path
       d="m 1510.5,1234.5 29,-29 h 107 l 29,29 v 41 l -29,29 h -107 l -29,-29 z"
       stroke="#000000"
       stroke-width="6.875"
       stroke-miterlimit="8"
       fill="#ffffff"
       fill-rule="evenodd"
       id="path411" /><text
       font-family="Arial, Arial_MSFontService, sans-serif"
       font-weight="700"
       font-size="37px"
       transform="translate(1582.16,1269)"
       id="text413">3</text><path
       d="m 1252.5,1790.5 29,-29 h 107 l 29,29 v 41 l -29,29 h -107 l -29,-29 z"
       stroke="#000000"
       stroke-width="6.875"
       stroke-miterlimit="8"
       fill="#ffffff"
       fill-rule="evenodd"
       id="path415" /><text
       font-family="Arial, Arial_MSFontService, sans-serif"
       font-weight="700"
       font-size="37px"
       transform="translate(1324.66,1824)"
       id="text417">4</text><path
       d="m 1030.5,2190.5 29,-29 h 107 l 29,29 v 41 l -29,29 h -107 l -29,-29 z"
       stroke="#000000"
       stroke-width="6.875"
       stroke-miterlimit="8"
       fill="#ffffff"
       fill-rule="evenodd"
       id="path419" /><text
       font-family="Arial, Arial_MSFontService, sans-serif"
       font-weight="700"
       font-size="37px"
       transform="translate(1102.38,2224)"
       id="text421">5</text></g></svg>
