<?xml version="1.0" encoding="UTF-8" standalone="no"?>
<svg
   width="459.99991"
   height="712.99298"
   xml:space="preserve"
   overflow="hidden"
   version="1.1"
   id="svg519"
   xmlns="http://www.w3.org/2000/svg"
   xmlns:svg="http://www.w3.org/2000/svg"><defs
     id="defs523" /><g
     transform="matrix(0.24742709,0,0,0.24742709,-14.897198,-25.783965)"
     id="g517"><path
       d="M 0,2.29167 H -82.4999 L -80.2083,0 v 246.877 l -2.2916,-2.292 h 65.6289 v 4.584 H -84.7916 V -2.29167 H 0 Z m -21.4543,230.83533 27.49997,13.75 -27.49997,13.75 z"
       transform="matrix(-1,0,0,1,1834.55,925.5)"
       id="path369" /><path
       d="m 145.5,2818.5 h 330 v 132 l -165,33 -165,-33 z"
       stroke="#000000"
       stroke-width="4.58333"
       stroke-miterlimit="8"
       fill="#ffffff"
       fill-rule="evenodd"
       id="path371" /><text
       font-family="Arial, Arial_MSFontService, sans-serif"
       font-weight="400"
       font-size="37px"
       transform="translate(235.246,2854)"
       id="text373">TARGET </text><text
       font-family="Arial, Arial_MSFontService, sans-serif"
       font-weight="400"
       font-size="37px"
       transform="translate(236.392,2898)"
       id="text375">WEIGHT </text><text
       font-family="Arial, Arial_MSFontService, sans-serif"
       font-weight="400"
       font-size="37px"
       transform="translate(248.423,2942)"
       id="text377">SETUP</text><path
       d="m 637.5,106.5 h 330 v 132 l -165,33 -165,-33 z"
       stroke="#000000"
       stroke-width="4.58333"
       stroke-miterlimit="8"
       fill="#ffffff"
       fill-rule="evenodd"
       id="path379" /><text
       font-family="Arial, Arial_MSFontService, sans-serif"
       font-weight="400"
       font-size="37px"
       transform="translate(733.284,186)"
       id="text381">RECIPE</text><path
       d="M 0,-2.29167 H 254.913 V 70.0694 H 250.33 V 0 l 2.291,2.29167 H 0 Z m 266.371,67.77777 -13.75,27.5 -13.75,-27.5 z"
       transform="matrix(-1,0,0,1,563.121,465.5)"
       id="path383" /><path
       d="m 1056.5,463.208 h 269.78 v 72.361 h -4.59 V 465.5 l 2.3,2.292 H 1056.5 Z m 281.24,67.778 -13.75,27.5 -13.75,-27.5 z"
       id="path385" /><rect
       x="1079.5"
       y="2480.5"
       width="495"
       height="165"
       stroke="#000000"
       stroke-width="4.58333"
       stroke-miterlimit="8"
       fill="#ffffff"
       id="rect387" /><text
       font-family="Arial, Arial_MSFontService, sans-serif"
       font-weight="400"
       font-size="37px"
       transform="translate(1276.96,2554)"
       id="text389">SAVE</text><text
       font-family="Arial, Arial_MSFontService, sans-serif"
       font-weight="400"
       font-size="37px"
       transform="translate(1257.75,2598)"
       id="text391">RECIPE</text><path
       d="m 1329.28,2645.5 v 88.71 H 310.5 l 2.292,-2.29 v 63.5 h -4.584 v -65.8 H 1326.99 l -2.29,2.3 v -86.42 z m -1005.03,145.33 -13.75,27.5 -13.75,-27.5 z"
       id="path393" /><path
       d="m 1325.58,723.5 v 62.25 H 646.999 l 2.292,-2.291 V 925.92 l -2.292,-2.292 h 59.584 v 4.584 H 644.707 V 781.167 h 678.583 l -2.29,2.292 V 723.5 Z M 702,912.17 729.5,925.92 702,939.67 Z"
       id="path395" /><path
       d="m 804.792,271.5 v 40.106 h -4.583 L 800.208,271.5 Z m 11.458,35.523 -13.749,27.5 -13.751,-27.5 z"
       id="path397" /><path
       d="m 312.792,723.5 v 54.712 h -4.584 V 723.5 Z m 11.458,50.128 -13.75,27.5 -13.75,-27.5 z"
       id="path399" /><path
       d="M 561.5,468 808,337.5 1054.5,468 808,598.5 Z"
       stroke="#000000"
       stroke-width="4.58333"
       stroke-miterlimit="8"
       fill="#ffffff"
       fill-rule="evenodd"
       id="path401" /><text
       font-family="Arial, Arial_MSFontService, sans-serif"
       font-weight="400"
       font-size="37px"
       transform="translate(772.376,457)"
       id="text403">New</text><text
       font-family="Arial, Arial_MSFontService, sans-serif"
       font-weight="400"
       font-size="37px"
       transform="translate(741.438,501)"
       id="text405">Recipe?</text><text
       font-family="Arial, Arial_MSFontService, sans-serif"
       font-weight="700"
       font-size="41px"
       transform="translate(438.627,453)"
       id="text407">NO</text><text
       font-family="Arial, Arial_MSFontService, sans-serif"
       font-weight="700"
       font-size="41px"
       transform="translate(1092.68,451)"
       id="text409">YES</text><path
       d="m 1224.5,923.208 h 85.76 v 4.584 h -85.76 z m 81.18,-11.458 27.5,13.75 -27.5,13.75 z"
       id="path411" /><path
       d="M 310.5,965.5 V 2817.81"
       stroke="#000000"
       stroke-width="4.58333"
       stroke-miterlimit="8"
       fill="none"
       fill-rule="evenodd"
       id="path413" /><rect
       x="729.5"
       y="843.5"
       width="495"
       height="165"
       stroke="#000000"
       stroke-width="4.58333"
       stroke-miterlimit="8"
       fill="#ffffff"
       id="rect415" /><text
       font-family="Arial, Arial_MSFontService, sans-serif"
       font-weight="400"
       font-size="37px"
       transform="translate(833.993,917)"
       id="text417">PORTION MOVE </text><text
       font-family="Arial, Arial_MSFontService, sans-serif"
       font-weight="400"
       font-size="37px"
       transform="translate(791.024,961)"
       id="text419">LENGTH AND</text><text
       font-family="Arial, Arial_MSFontService, sans-serif"
       font-weight="400"
       font-size="37px"
       transform="translate(1037.95,961)"
       id="text421">SPEED</text><rect
       x="1339.5"
       y="843.5"
       width="495"
       height="165"
       stroke="#000000"
       stroke-width="4.58333"
       stroke-miterlimit="8"
       fill="#ffffff"
       id="rect423" /><text
       font-family="Arial, Arial_MSFontService, sans-serif"
       font-weight="400"
       font-size="37px"
       transform="translate(1400.75,917)"
       id="text425">HOPPER LOW / HIGH </text><text
       font-family="Arial, Arial_MSFontService, sans-serif"
       font-weight="400"
       font-size="37px"
       transform="translate(1513.34,961)"
       id="text427">WEIGHT</text><rect
       x="737.5"
       y="1090.5"
       width="495"
       height="165"
       stroke="#000000"
       stroke-width="4.58333"
       stroke-miterlimit="8"
       fill="#ffffff"
       id="rect429" /><text
       font-family="Arial, Arial_MSFontService, sans-serif"
       font-weight="400"
       font-size="37px"
       transform="translate(793.217,1164)"
       id="text431">BUCKET OPEN / FALL </text><text
       font-family="Arial, Arial_MSFontService, sans-serif"
       font-weight="400"
       font-size="37px"
       transform="translate(940.732,1208)"
       id="text433">TIME</text><rect
       x="1333.5"
       y="1090.5"
       width="495"
       height="165"
       stroke="#000000"
       stroke-width="4.58333"
       stroke-miterlimit="8"
       fill="#ffffff"
       id="rect435" /><text
       font-family="Arial, Arial_MSFontService, sans-serif"
       font-weight="400"
       font-size="37px"
       transform="translate(1428.51,1142)"
       id="text437">CARPET OFFSET, </text><text
       font-family="Arial, Arial_MSFontService, sans-serif"
       font-weight="400"
       font-size="37px"
       transform="translate(1381.53,1186)"
       id="text439">STROKE LENGTH AND </text><text
       font-family="Arial, Arial_MSFontService, sans-serif"
       font-weight="400"
       font-size="37px"
       transform="translate(1444.85,1230)"
       id="text441">EXTEND RATIO</text><path
       d="M 0,-2.29167 H 93.0503 V 249.169 h -61.875 v -4.583 h 59.5833 l -2.2917,2.292 V 0 l 2.2917,2.29167 H 0 Z M 35.7587,260.628 8.25866,246.878 35.7587,233.128 Z"
       transform="matrix(-1,0,0,1,737.759,1172.5)"
       id="path443" /><path
       d="M 8.18493e-6,-2.29167 78.1282,-2.29139 78.1281,2.29195 -8.18493e-6,2.29167 Z M 73.5449,-13.7497 101.045,3.60892e-4 73.5448,13.7503 Z"
       transform="matrix(-1,0,0,1,1333.54,1172.5)"
       id="path445" /><path
       d="M 2.28639,-0.155475 5.77944,51.2126 1.20666,51.5236 -2.28639,0.155475 Z M 16.9004,45.8625 5.0478,74.232 -10.5362,47.7282 Z"
       transform="matrix(-1,0,0,1,1331.55,2406.5)"
       id="path447" /><rect
       x="62.500099"
       y="558.5"
       width="495"
       height="165"
       stroke="#000000"
       stroke-width="4.58333"
       stroke-miterlimit="8"
       fill="#ffffff"
       id="rect449" /><text
       font-family="Arial, Arial_MSFontService, sans-serif"
       font-weight="400"
       font-size="37px"
       transform="translate(158.475,632)"
       id="text451">ENTER RECIPE #</text><text
       font-family="Arial, Arial_MSFontService, sans-serif"
       font-weight="400"
       font-size="37px"
       transform="translate(226.08,676)"
       id="text453">(RECALL)</text><rect
       x="1076.5"
       y="558.5"
       width="495"
       height="165"
       stroke="#000000"
       stroke-width="4.58333"
       stroke-miterlimit="8"
       fill="#ffffff"
       id="rect455" /><text
       font-family="Arial, Arial_MSFontService, sans-serif"
       font-weight="400"
       font-size="37px"
       transform="translate(1171.97,632)"
       id="text457">ENTER RECIPE #</text><text
       font-family="Arial, Arial_MSFontService, sans-serif"
       font-weight="400"
       font-size="37px"
       transform="translate(1268.5,676)"
       id="text459">(NEW)</text><rect
       x="62.500099"
       y="800.5"
       width="495"
       height="165"
       stroke="#000000"
       stroke-width="4.58333"
       stroke-miterlimit="8"
       fill="#ffffff"
       id="rect461" /><text
       font-family="Arial, Arial_MSFontService, sans-serif"
       font-weight="400"
       font-size="37px"
       transform="translate(191.991,875)"
       id="text463">LOAD SAVED</text><text
       font-family="Arial, Arial_MSFontService, sans-serif"
       font-weight="400"
       font-size="37px"
       transform="translate(241.262,919)"
       id="text465">RECIPE</text><rect
       x="729.5"
       y="1336.5"
       width="495"
       height="165"
       stroke="#000000"
       stroke-width="4.58333"
       stroke-miterlimit="8"
       fill="#ffffff"
       id="rect467" /><text
       font-family="Arial, Arial_MSFontService, sans-serif"
       font-weight="400"
       font-size="37px"
       transform="translate(829.073,1411)"
       id="text469">RAKE / SPINNER </text><text
       font-family="Arial, Arial_MSFontService, sans-serif"
       font-weight="400"
       font-size="37px"
       transform="translate(840.531,1455)"
       id="text471">MOTOR SPEED</text><rect
       x="1084.5"
       y="1925.5"
       width="495"
       height="165"
       stroke="#000000"
       stroke-width="4.58333"
       stroke-miterlimit="8"
       fill="#ffffff"
       id="rect473" /><text
       font-family="Arial, Arial_MSFontService, sans-serif"
       font-weight="400"
       font-size="37px"
       transform="translate(1154.81,2022)"
       id="text475">FEED</text><text
       font-family="Arial, Arial_MSFontService, sans-serif"
       font-weight="400"
       font-size="37px"
       transform="translate(1252.78,2022)"
       id="text477">-</text><text
       font-family="Arial, Arial_MSFontService, sans-serif"
       font-weight="400"
       font-size="37px"
       transform="translate(1264.81,2022)"
       id="text479">Z CONVEYOR</text><path
       d="M 2.29154,-0.0239598 3.05089,72.6011 -1.53219,72.649 -2.29154,0.0239598 Z M 14.4607,67.8982 0.99895,95.5405 -13.0378,68.1857 Z"
       transform="matrix(-1,0,0,1,1332.5,1830.5)"
       id="path481" /><text
       font-family="'Arial Narrow', 'Arial Narrow_MSFontService', sans-serif"
       font-weight="700"
       font-stretch="condensed"
       font-size="41px"
       transform="translate(1373.97,1864)"
       id="text483">YES</text><text
       font-family="'Arial Narrow', 'Arial Narrow_MSFontService', sans-serif"
       font-weight="700"
       font-stretch="condensed"
       font-size="41px"
       transform="translate(1598.32,1665)"
       id="text485">NO</text><path
       d="m 1085.5,1698.5 247.5,-132 247.5,132 -247.5,132 z"
       stroke="#000000"
       stroke-width="4.58333"
       stroke-miterlimit="8"
       fill="#ffffff"
       fill-rule="evenodd"
       id="path487" /><text
       font-family="Arial, Arial_MSFontService, sans-serif"
       font-weight="400"
       font-size="37px"
       transform="translate(1182.16,1690)"
       id="text489">FEED</text><text
       font-family="Arial, Arial_MSFontService, sans-serif"
       font-weight="400"
       font-size="37px"
       transform="translate(1280.13,1690)"
       id="text491">-</text><text
       font-family="Arial, Arial_MSFontService, sans-serif"
       font-weight="400"
       font-size="37px"
       transform="translate(1292.16,1690)"
       id="text493">Z Conveyor</text><text
       font-family="Arial, Arial_MSFontService, sans-serif"
       font-weight="400"
       font-size="37px"
       transform="translate(1254.05,1734)"
       id="text495">Enabled?</text><rect
       x="969.5"
       y="1533.5"
       width="786"
       height="596"
       stroke="#e97132"
       stroke-width="4.58333"
       stroke-linejoin="round"
       stroke-miterlimit="10"
       stroke-dasharray="18.3333, 13.75"
       fill="none"
       id="rect497" /><path
       d="m 1224.5,1417.21 h 110.74 v 126.06 h -4.58 V 1419.5 l 2.29,2.29 H 1224.5 Z m 122.2,121.47 -13.75,27.5 -13.75,-27.5 z"
       id="path499" /><rect
       x="1084.5"
       y="2241.5"
       width="495"
       height="165"
       stroke="#000000"
       stroke-width="4.58333"
       stroke-miterlimit="8"
       fill="#ffffff"
       id="rect501" /><text
       font-family="Arial, Arial_MSFontService, sans-serif"
       font-weight="400"
       font-size="37px"
       transform="translate(1165.12,2315)"
       id="text503">ENABLE</text><text
       font-family="Arial, Arial_MSFontService, sans-serif"
       font-weight="400"
       font-size="37px"
       transform="translate(1320.95,2315)"
       id="text505">/</text><text
       font-family="Arial, Arial_MSFontService, sans-serif"
       font-weight="400"
       font-size="37px"
       transform="translate(1341.58,2315)"
       id="text507">DISABLE</text><text
       font-family="Arial, Arial_MSFontService, sans-serif"
       font-weight="400"
       font-size="37px"
       transform="translate(1228.99,2359)"
       id="text509">SKIP MOD</text><text
       font-family="Arial, Arial_MSFontService, sans-serif"
       font-weight="400"
       font-size="37px"
       transform="translate(1408.89,2359)"
       id="text511">E</text><path
       d="m 1333.79,2090.5 v 127.56 h -4.58 V 2090.5 Z m 11.46,122.98 -13.75,27.5 -13.75,-27.5 z"
       id="path513" /><path
       d="M 0,2.29167 H -253.929 L -251.637,0 v 474.654 l -2.292,-2.292 h 504.72 v 47.742 h -4.584 v -45.45 l 2.292,2.292 H -256.22 V -2.29167 H 0 Z M 262.249,515.52 l -13.75,27.5 -13.75,-27.5 z"
       transform="matrix(-1,0,0,1,1580,1698.5)"
       id="path515" /></g></svg>
