<svg width="666" height="668" xmlns="http://www.w3.org/2000/svg" xmlns:xlink="http://www.w3.org/1999/xlink" xml:space="preserve" overflow="hidden"><g transform="translate(-461 -87)"><path d="M463.5 615C463.5 599.812 475.812 587.5 491 587.5L931 587.5C946.188 587.5 958.5 599.812 958.5 615L958.5 724.999C958.5 740.187 946.188 752.499 931 752.499L491 752.499C475.812 752.499 463.5 740.187 463.5 724.999Z" stroke="#000000" stroke-width="4.58333" stroke-miterlimit="8" fill="#FFFFFF" fill-rule="evenodd"/><text font-family="Arial,Arial_MSFontService,sans-serif" font-style="italic" font-weight="400" font-size="37" transform="matrix(1 0 0 1 546.585 661)">Machine Running In </text><text font-family="Arial,Arial_MSFontService,sans-serif" font-style="italic" font-weight="400" font-size="37" transform="matrix(1 0 0 1 607.314 705)">Empty Mode</text><path d="M713.792 501.5 713.792 564.377 709.209 564.377 709.208 501.5ZM725.25 559.793 711.5 587.294 697.75 559.794Z"/><path d="M713.792 254.5 713.792 313.461 709.209 313.461 709.208 254.5ZM725.25 308.878 711.5 336.378 697.75 308.878Z"/><path d="M546.5 89.4999 876.5 89.4999 876.5 221.5 711.5 254.5 546.5 221.5Z" stroke="#000000" stroke-width="4.58333" stroke-miterlimit="8" fill="#FFFFFF" fill-rule="evenodd"/><text font-family="Arial,Arial_MSFontService,sans-serif" font-weight="700" font-size="37" transform="matrix(1 0 0 1 647.419 169)">EMPTY</text><rect x="463.5" y="336.5" width="495" height="165" stroke="#000000" stroke-width="4.58333" stroke-miterlimit="8" fill="#FFFFFF"/><text font-family="Arial,Arial_MSFontService,sans-serif" font-weight="400" font-size="37" transform="matrix(1 0 0 1 566.637 432)">START </text><text font-family="Arial,Arial_MSFontService,sans-serif" font-weight="400" font-size="37" transform="matrix(1 0 0 1 697.262 432)">Depositor</text><path d="M958.5 221.496 987.496 192.5 1094.5 192.5 1123.5 221.496 1123.5 262.504 1094.5 291.5 987.496 291.5 958.5 262.504Z" stroke="#000000" stroke-width="6.875" stroke-miterlimit="8" fill="#FFFFFF" fill-rule="evenodd"/><text font-family="Arial,Arial_MSFontService,sans-serif" font-weight="700" font-size="37" transform="matrix(1 0 0 1 1030.41 256)">1</text></g></svg>