<svg width="670" height="668" xmlns="http://www.w3.org/2000/svg" xmlns:xlink="http://www.w3.org/1999/xlink" xml:space="preserve" overflow="hidden"><g transform="translate(-552 -86)"><path d="M803.792 253.5 803.792 312.461 799.209 312.461 799.208 253.5ZM815.25 307.878 801.5 335.378 787.75 307.878Z"/><path d="M636.5 88.4998 966.5 88.4998 966.5 220.5 801.5 253.5 636.5 220.5Z" stroke="#000000" stroke-width="4.58333" stroke-miterlimit="8" fill="#FFFFFF" fill-rule="evenodd"/><text font-family="Arial,Arial_MSFontService,sans-serif" font-weight="700" font-size="37" transform="matrix(1 0 0 1 725.505 168)">BYPASS</text><path d="M554.5 614C554.5 598.812 566.812 586.5 582 586.5L1022 586.5C1037.19 586.5 1049.5 598.812 1049.5 614L1049.5 723.999C1049.5 739.187 1037.19 751.499 1022 751.499L582 751.499C566.812 751.499 554.5 739.187 554.5 723.999Z" stroke="#000000" stroke-width="4.58333" stroke-miterlimit="8" fill="#FFFFFF" fill-rule="evenodd"/><text font-family="Arial,Arial_MSFontService,sans-serif" font-style="italic" font-weight="400" font-size="37" transform="matrix(1 0 0 1 636.989 660)">Machine Running In</text><text font-family="Arial,Arial_MSFontService,sans-serif" font-style="italic" font-weight="400" font-size="37" transform="matrix(1 0 0 1 689.422 704)">Bypass Mode</text><rect x="554.5" y="335.5" width="495" height="165" stroke="#000000" stroke-width="4.58333" stroke-miterlimit="8" fill="#FFFFFF"/><text font-family="Arial,Arial_MSFontService,sans-serif" font-weight="400" font-size="37" transform="matrix(1 0 0 1 657.041 432)">START </text><text font-family="Arial,Arial_MSFontService,sans-serif" font-weight="400" font-size="37" transform="matrix(1 0 0 1 787.666 432)">Depositor</text><path d="M803.792 500.5 803.792 563.377 799.209 563.377 799.208 500.5ZM815.25 558.793 801.5 586.294 787.75 558.794Z"/><path d="M1053.5 233.496 1082.5 204.5 1189.5 204.5 1218.5 233.496 1218.5 274.504 1189.5 303.5 1082.5 303.5 1053.5 274.504Z" stroke="#000000" stroke-width="6.875" stroke-miterlimit="8" fill="#FFFFFF" fill-rule="evenodd"/><text font-family="Arial,Arial_MSFontService,sans-serif" font-weight="700" font-size="37" transform="matrix(1 0 0 1 1125.23 267)">1</text></g></svg>