<?xml version="1.0" encoding="UTF-8" standalone="no"?>
<svg
   width="340"
   height="449.75211"
   xml:space="preserve"
   overflow="hidden"
   version="1.1"
   id="svg427"
   xmlns="http://www.w3.org/2000/svg"
   xmlns:svg="http://www.w3.org/2000/svg"><defs
     id="defs431" /><g
     transform="matrix(0.25131664,0,0,0.25131664,-11.827589,-16.387915)"
     id="g425"><path
       d="m 453.788,232.369 2.626,46.005 -4.576,0.261 -2.626,-46.005 z m 13.804,40.776 -12.161,28.239 -15.294,-26.672 z"
       id="path331" /><path
       d="m 286.5,67.4999 h 330 V 199.5 l -165,33 -165,-33 z"
       stroke="#000000"
       stroke-width="4.58333"
       stroke-miterlimit="8"
       fill="#ffffff"
       fill-rule="evenodd"
       id="path333" /><text
       font-family="Arial, Arial_MSFontService, sans-serif"
       font-weight="700"
       font-size="37px"
       transform="translate(350.819,147)"
       id="text335">RUN MODE</text><path
       d="m 206.5,435 247,-130.5 247,130.5 -247,130.5 z"
       stroke="#000000"
       stroke-width="4.58333"
       stroke-miterlimit="8"
       fill="#ffffff"
       fill-rule="evenodd"
       id="path337" /><text
       font-family="Arial, Arial_MSFontService, sans-serif"
       font-weight="400"
       font-size="37px"
       transform="translate(401.158,424)"
       id="text339">Target </text><text
       font-family="Arial, Arial_MSFontService, sans-serif"
       font-weight="400"
       font-size="37px"
       transform="translate(370.22,468)"
       id="text341">Detected?</text><text
       font-family="'Arial Narrow', 'Arial Narrow_MSFontService', sans-serif"
       font-weight="700"
       font-stretch="condensed"
       font-size="41px"
       transform="translate(120.698,420)"
       id="text343">YES</text><text
       font-family="'Arial Narrow', 'Arial Narrow_MSFontService', sans-serif"
       font-weight="700"
       font-stretch="condensed"
       font-size="41px"
       transform="translate(735.501,418)"
       id="text345">NO</text><path
       d="m 701.5,430.208 h 253.14 v 82.471 h -4.583 V 432.5 l 2.292,2.292 H 701.5 Z m 264.599,77.888 -13.75,27.5 -13.75,-27.5 z"
       id="path347" /><path
       d="m 704.5,958.5 247,-130 247,130 -247,130 z"
       stroke="#000000"
       stroke-width="4.58333"
       stroke-miterlimit="8"
       fill="#ffffff"
       fill-rule="evenodd"
       id="path349" /><text
       font-family="Arial, Arial_MSFontService, sans-serif"
       font-weight="400"
       font-size="37px"
       transform="translate(822.16,947)"
       id="text351">Conserve Timer</text><text
       font-family="Arial, Arial_MSFontService, sans-serif"
       font-weight="400"
       font-size="37px"
       transform="translate(880.025,991)"
       id="text353">Expired?</text><text
       font-family="'Arial Narrow', 'Arial Narrow_MSFontService', sans-serif"
       font-weight="700"
       font-stretch="condensed"
       font-size="41px"
       transform="translate(987.245,1126)"
       id="text355">YES</text><rect
       x="704.5"
       y="535.5"
       width="495"
       height="222"
       stroke="#000000"
       stroke-width="4.58333"
       stroke-miterlimit="8"
       fill="#ffffff"
       id="rect357" /><text
       font-family="Arial, Arial_MSFontService, sans-serif"
       font-weight="400"
       font-size="37px"
       transform="translate(974.336,616)"
       id="text359">START </text><text
       font-family="Arial, Arial_MSFontService, sans-serif"
       font-weight="400"
       font-size="37px"
       transform="translate(931.367,660)"
       id="text361">CONSERVE </text><text
       font-family="Arial, Arial_MSFontService, sans-serif"
       font-weight="400"
       font-size="37px"
       transform="translate(917.319,704)"
       id="text363">MODE TIMER</text><g
       id="g373"><g
         id="g371"><g
           id="g369"><path
             d="m 779.873,691.448 c -21.269,0.006 -38.516,-17.231 -38.522,-38.5 -0.006,-21.269 17.231,-38.516 38.5,-38.522 21.269,-0.006 38.516,17.231 38.522,38.5 0,0.003 0,0.007 0,0.011 0.038,21.231 -17.142,38.473 -38.373,38.511 -0.042,0 -0.084,0 -0.127,0 z m 32.588,-72.071 4.125,-4.125 c 1.541,-1.638 1.48,-4.211 -0.138,-5.775 -1.591,-1.551 -4.111,-1.611 -5.775,-0.137 l -4.675,4.812 c -6.541,-4.431 -14.122,-7.085 -22,-7.7 v -5.775 h 12.375 v -8.25 h -33 v 8.25 h 12.375 v 5.638 c -25.792,2.244 -44.882,24.972 -42.637,50.764 2.244,25.793 24.972,44.883 50.764,42.639 25.793,-2.245 44.883,-24.973 42.638,-50.765 -0.977,-11.228 -5.965,-21.727 -14.052,-29.576 z"
             stroke="#000000"
             stroke-width="4.63158"
             id="path365" /><path
             d="m 812.871,652.916 c -0.022,-18.216 -14.784,-32.979 -33,-33 v 33 z"
             stroke="#000000"
             stroke-width="4.63158"
             id="path367" /></g></g></g><path
       d="m 702.5,1186 c 0,-15.19 12.312,-27.5 27.5,-27.5 h 440 c 15.19,0 27.5,12.31 27.5,27.5 v 110 c 0,15.19 -12.31,27.5 -27.5,27.5 H 730 c -15.188,0 -27.5,-12.31 -27.5,-27.5 z"
       stroke="#000000"
       stroke-width="4.58333"
       stroke-miterlimit="8"
       fill="#ffffff"
       fill-rule="evenodd"
       id="path375" /><text
       font-family="Arial, Arial_MSFontService, sans-serif"
       font-style="italic"
       font-weight="400"
       font-size="37px"
       transform="translate(821.646,1233)"
       id="text377">Machine Enters</text><text
       font-family="Arial, Arial_MSFontService, sans-serif"
       font-style="italic"
       font-weight="400"
       font-size="37px"
       transform="translate(819.652,1277)"
       id="text379">Conserve Mode</text><path
       d="m 702.5,1715 c 0,-15.19 12.312,-27.5 27.5,-27.5 h 440 c 15.19,0 27.5,12.31 27.5,27.5 v 110 c 0,15.19 -12.31,27.5 -27.5,27.5 H 730 c -15.188,0 -27.5,-12.31 -27.5,-27.5 z"
       stroke="#000000"
       stroke-width="4.58333"
       stroke-miterlimit="8"
       fill="#ffffff"
       fill-rule="evenodd"
       id="path381" /><text
       font-family="Arial, Arial_MSFontService, sans-serif"
       font-style="italic"
       font-weight="400"
       font-size="37px"
       transform="translate(817.074,1762)"
       id="text383">Resume Normal </text><text
       font-family="Arial, Arial_MSFontService, sans-serif"
       font-style="italic"
       font-weight="400"
       font-size="37px"
       transform="translate(859.47,1806)"
       id="text385">Operations</text><path
       d="m 954.792,757.473 0.529,44.104 -4.583,0.055 -0.529,-44.104 z m 11.932,39.383 -13.419,27.663 -14.079,-27.333 z"
       id="path387" /><path
       d="M 2.28959,-0.0974303 4.39695,49.4251 -0.182237,49.62 -2.28959,0.0974303 Z M 15.6501,44.3588 3.08166,72.4185 -11.8251,45.5279 Z"
       transform="matrix(-1,0,0,1,953.582,1086.5)"
       id="path389" /><path
       d="M 0,0 H 139.948 V 969.746"
       stroke="#000000"
       stroke-width="4.58333"
       stroke-miterlimit="8"
       fill="none"
       fill-rule="evenodd"
       transform="matrix(-1,0,0,1,208.448,432.5)"
       id="path391" /><path
       d="m 68.4999,1401.5 c 0,0 1e-4,0 2e-4,0 1e-4,0 2e-4,0 2e-4,0 0,0 -10e-5,0 -2e-4,0 -1e-4,0 -2e-4,0 -2e-4,0 z"
       stroke="#042433"
       stroke-width="4.58333"
       stroke-miterlimit="8"
       fill="#156082"
       fill-rule="evenodd"
       id="path393" /><path
       d="M 0,0 H 142.93 V 881.909 H 285.858"
       stroke="#000000"
       stroke-width="4.58333"
       stroke-miterlimit="8"
       fill="none"
       fill-rule="evenodd"
       transform="matrix(0,1,1,0,68.4997,1401.5)"
       id="path395" /><path
       d="M 702.267,1243.29 H 452.208 V 585.417 h 4.584 V 1241 l -2.292,-2.29 H 702.267 Z M 440.75,590 454.5,562.5 468.25,590 Z"
       id="path397" /><path
       d="m 952.792,1323.5 v 340.9 h -4.583 l -10e-4,-340.9 z m 11.458,336.32 -13.75,27.5 -13.75,-27.5 z"
       id="path399" /><path
       d="M 741.5,247.496 770.496,218.5 h 107.008 l 28.996,28.996 v 41.008 L 877.504,317.5 H 770.496 L 741.5,288.504 Z"
       stroke="#000000"
       stroke-width="6.875"
       stroke-miterlimit="8"
       fill="#ffffff"
       fill-rule="evenodd"
       id="path401" /><text
       font-family="Arial, Arial_MSFontService, sans-serif"
       font-weight="700"
       font-size="37px"
       transform="translate(813.233,282)"
       id="text403">1</text><path
       d="M 50.5,273.496 79.4961,244.5 H 186.504 l 28.996,28.996 v 41.008 L 186.504,343.5 H 79.4961 L 50.5,314.504 Z"
       stroke="#000000"
       stroke-width="6.875"
       stroke-miterlimit="8"
       fill="#ffffff"
       fill-rule="evenodd"
       id="path405" /><text
       font-family="Arial, Arial_MSFontService, sans-serif"
       font-weight="700"
       font-size="37px"
       transform="translate(121.97,308)"
       id="text407">2</text><path
       d="m 1221.5,832.496 29,-28.996 h 107 l 29,28.996 v 41.008 l -29,28.996 h -107 l -29,-28.996 z"
       stroke="#000000"
       stroke-width="6.875"
       stroke-miterlimit="8"
       fill="#ffffff"
       fill-rule="evenodd"
       id="path409" /><text
       font-family="Arial, Arial_MSFontService, sans-serif"
       font-weight="700"
       font-size="37px"
       transform="translate(1292.86,866)"
       id="text411">3</text><path
       d="m 1231.5,1187.5 29,-29 h 107 l 29,29 v 41 l -29,29 h -107 l -29,-29 z"
       stroke="#000000"
       stroke-width="6.875"
       stroke-miterlimit="8"
       fill="#ffffff"
       fill-rule="evenodd"
       id="path413" /><text
       font-family="Arial, Arial_MSFontService, sans-serif"
       font-weight="700"
       font-size="37px"
       transform="translate(1303.08,1222)"
       id="text415">4</text><path
       d="m 159.5,1420.5 28.996,-29 h 107.008 l 28.996,29 v 41 l -28.996,29 H 188.496 l -28.996,-29 z"
       stroke="#000000"
       stroke-width="6.875"
       stroke-miterlimit="8"
       fill="#ffffff"
       fill-rule="evenodd"
       id="path417" /><text
       font-family="Arial, Arial_MSFontService, sans-serif"
       font-weight="700"
       font-size="37px"
       transform="translate(231.429,1455)"
       id="text419">5</text><path
       d="m 1056.5,1554.5 29,-29 h 107 l 29,29 v 41 l -29,29 h -107 l -29,-29 z"
       stroke="#000000"
       stroke-width="6.875"
       stroke-miterlimit="8"
       fill="#ffffff"
       fill-rule="evenodd"
       id="path421" /><text
       font-family="Arial, Arial_MSFontService, sans-serif"
       font-weight="700"
       font-size="37px"
       transform="translate(1127.86,1589)"
       id="text423">6</text></g></svg>
