<svg width="1860" height="2883" xmlns="http://www.w3.org/2000/svg" xmlns:xlink="http://www.w3.org/1999/xlink" xml:space="preserve" overflow="hidden"><g transform="translate(-60 -104)"><path d="M0 2.29167-82.4999 2.29167-80.2083 0-80.2083 246.877-82.4999 244.585-16.871 244.585-16.871 249.169-84.7916 249.169-84.7916-2.29167 0-2.29167ZM-21.4543 233.127 6.04567 246.877-21.4543 260.627Z" transform="matrix(-1 0 0 1 1834.55 925.5)"/><path d="M145.5 2818.5 475.5 2818.5 475.5 2950.5 310.5 2983.5 145.5 2950.5Z" stroke="#000000" stroke-width="4.58333" stroke-miterlimit="8" fill="#FFFFFF" fill-rule="evenodd"/><text font-family="Arial,Arial_MSFontService,sans-serif" font-weight="400" font-size="37" transform="matrix(1 0 0 1 235.246 2854)">TARGET </text><text font-family="Arial,Arial_MSFontService,sans-serif" font-weight="400" font-size="37" transform="matrix(1 0 0 1 236.392 2898)">WEIGHT </text><text font-family="Arial,Arial_MSFontService,sans-serif" font-weight="400" font-size="37" transform="matrix(1 0 0 1 248.423 2942)">SETUP</text><path d="M637.5 106.5 967.5 106.5 967.5 238.5 802.5 271.5 637.5 238.5Z" stroke="#000000" stroke-width="4.58333" stroke-miterlimit="8" fill="#FFFFFF" fill-rule="evenodd"/><text font-family="Arial,Arial_MSFontService,sans-serif" font-weight="400" font-size="37" transform="matrix(1 0 0 1 733.284 186)">RECIPE</text><path d="M0-2.29167 254.913-2.29167 254.913 70.0694 250.33 70.0694 250.33 0 252.621 2.29167 0 2.29167ZM266.371 65.4861 252.621 92.9861 238.871 65.4861Z" transform="matrix(-1 1.22465e-16 1.22465e-16 1 563.121 465.5)"/><path d="M1056.5 463.208 1326.28 463.208 1326.28 535.569 1321.69 535.569 1321.69 465.5 1323.99 467.792 1056.5 467.792ZM1337.74 530.986 1323.99 558.486 1310.24 530.986Z"/><rect x="1079.5" y="2480.5" width="495" height="165" stroke="#000000" stroke-width="4.58333" stroke-miterlimit="8" fill="#FFFFFF"/><text font-family="Arial,Arial_MSFontService,sans-serif" font-weight="400" font-size="37" transform="matrix(1 0 0 1 1276.96 2554)">SAVE</text><text font-family="Arial,Arial_MSFontService,sans-serif" font-weight="400" font-size="37" transform="matrix(1 0 0 1 1257.75 2598)">RECIPE</text><path d="M1329.28 2645.5 1329.28 2734.21 310.5 2734.21 312.792 2731.92 312.792 2795.42 308.208 2795.42 308.208 2729.62 1326.99 2729.62 1324.7 2731.92 1324.7 2645.5ZM324.25 2790.83 310.5 2818.33 296.75 2790.83Z"/><path d="M1325.58 723.5 1325.58 785.75 646.999 785.75 649.291 783.459 649.291 925.92 646.999 923.628 706.583 923.628 706.583 928.212 644.707 928.212 644.707 781.167 1323.29 781.167 1321 783.459 1321 723.5ZM702 912.17 729.5 925.92 702 939.67Z"/><path d="M804.792 271.5 804.792 311.606 800.209 311.606 800.208 271.5ZM816.25 307.023 802.501 334.523 788.75 307.023Z"/><path d="M312.792 723.5 312.792 778.212 308.208 778.212 308.208 723.5ZM324.25 773.628 310.5 801.128 296.75 773.628Z"/><path d="M561.5 468 808 337.5 1054.5 468 808 598.5Z" stroke="#000000" stroke-width="4.58333" stroke-miterlimit="8" fill="#FFFFFF" fill-rule="evenodd"/><text font-family="Arial,Arial_MSFontService,sans-serif" font-weight="400" font-size="37" transform="matrix(1 0 0 1 772.376 457)">New</text><text font-family="Arial,Arial_MSFontService,sans-serif" font-weight="400" font-size="37" transform="matrix(1 0 0 1 741.438 501)">Recipe?</text><text font-family="Arial,Arial_MSFontService,sans-serif" font-weight="700" font-size="41" transform="matrix(1 0 0 1 438.627 453)">NO</text><text font-family="Arial,Arial_MSFontService,sans-serif" font-weight="700" font-size="41" transform="matrix(1 0 0 1 1092.68 451)">YES</text><path d="M1224.5 923.208 1310.26 923.208 1310.26 927.792 1224.5 927.792ZM1305.68 911.75 1333.18 925.5 1305.68 939.25Z"/><path d="M310.5 965.5 310.5 2817.81" stroke="#000000" stroke-width="4.58333" stroke-miterlimit="8" fill="none" fill-rule="evenodd"/><rect x="729.5" y="843.5" width="495" height="165" stroke="#000000" stroke-width="4.58333" stroke-miterlimit="8" fill="#FFFFFF"/><text font-family="Arial,Arial_MSFontService,sans-serif" font-weight="400" font-size="37" transform="matrix(1 0 0 1 833.993 917)">PORTION MOVE </text><text font-family="Arial,Arial_MSFontService,sans-serif" font-weight="400" font-size="37" transform="matrix(1 0 0 1 791.024 961)">LENGTH AND</text><text font-family="Arial,Arial_MSFontService,sans-serif" font-weight="400" font-size="37" transform="matrix(1 0 0 1 1037.95 961)">SPEED</text><rect x="1339.5" y="843.5" width="495" height="165" stroke="#000000" stroke-width="4.58333" stroke-miterlimit="8" fill="#FFFFFF"/><text font-family="Arial,Arial_MSFontService,sans-serif" font-weight="400" font-size="37" transform="matrix(1 0 0 1 1400.75 917)">HOPPER LOW / HIGH </text><text font-family="Arial,Arial_MSFontService,sans-serif" font-weight="400" font-size="37" transform="matrix(1 0 0 1 1513.34 961)">WEIGHT</text><rect x="737.5" y="1090.5" width="495" height="165" stroke="#000000" stroke-width="4.58333" stroke-miterlimit="8" fill="#FFFFFF"/><text font-family="Arial,Arial_MSFontService,sans-serif" font-weight="400" font-size="37" transform="matrix(1 0 0 1 793.217 1164)">BUCKET OPEN / FALL </text><text font-family="Arial,Arial_MSFontService,sans-serif" font-weight="400" font-size="37" transform="matrix(1 0 0 1 940.732 1208)">TIME</text><rect x="1333.5" y="1090.5" width="495" height="165" stroke="#000000" stroke-width="4.58333" stroke-miterlimit="8" fill="#FFFFFF"/><text font-family="Arial,Arial_MSFontService,sans-serif" font-weight="400" font-size="37" transform="matrix(1 0 0 1 1428.51 1142)">CARPET OFFSET, </text><text font-family="Arial,Arial_MSFontService,sans-serif" font-weight="400" font-size="37" transform="matrix(1 0 0 1 1381.53 1186)">STROKE LENGTH AND </text><text font-family="Arial,Arial_MSFontService,sans-serif" font-weight="400" font-size="37" transform="matrix(1 0 0 1 1444.85 1230)">EXTEND RATIO</text><path d="M0-2.29167 93.0503-2.29167 93.0503 249.169 31.1753 249.169 31.1753 244.586 90.7586 244.586 88.4669 246.878 88.4669 0 90.7586 2.29167 0 2.29167ZM35.7587 260.628 8.25866 246.878 35.7587 233.128Z" transform="matrix(-1 1.22465e-16 1.22465e-16 1 737.759 1172.5)"/><path d="M8.18493e-06-2.29167 78.1282-2.29139 78.1281 2.29195-8.18493e-06 2.29167ZM73.5449-13.7497 101.045 0.000360892 73.5448 13.7503Z" transform="matrix(-1 0 0 1 1333.54 1172.5)"/><path d="M2.28639-0.155475 5.77944 51.2126 1.20666 51.5236-2.28639 0.155475ZM16.9004 45.8625 5.0478 74.232-10.5362 47.7282Z" transform="matrix(-1 0 0 1 1331.55 2406.5)"/><rect x="62.5001" y="558.5" width="495" height="165" stroke="#000000" stroke-width="4.58333" stroke-miterlimit="8" fill="#FFFFFF"/><text font-family="Arial,Arial_MSFontService,sans-serif" font-weight="400" font-size="37" transform="matrix(1 0 0 1 158.475 632)">ENTER RECIPE #</text><text font-family="Arial,Arial_MSFontService,sans-serif" font-weight="400" font-size="37" transform="matrix(1 0 0 1 226.08 676)">(RECALL)</text><rect x="1076.5" y="558.5" width="495" height="165" stroke="#000000" stroke-width="4.58333" stroke-miterlimit="8" fill="#FFFFFF"/><text font-family="Arial,Arial_MSFontService,sans-serif" font-weight="400" font-size="37" transform="matrix(1 0 0 1 1171.97 632)">ENTER RECIPE #</text><text font-family="Arial,Arial_MSFontService,sans-serif" font-weight="400" font-size="37" transform="matrix(1 0 0 1 1268.5 676)">(NEW)</text><rect x="62.5001" y="800.5" width="495" height="165" stroke="#000000" stroke-width="4.58333" stroke-miterlimit="8" fill="#FFFFFF"/><text font-family="Arial,Arial_MSFontService,sans-serif" font-weight="400" font-size="37" transform="matrix(1 0 0 1 191.991 875)">LOAD SAVED</text><text font-family="Arial,Arial_MSFontService,sans-serif" font-weight="400" font-size="37" transform="matrix(1 0 0 1 241.262 919)">RECIPE</text><rect x="729.5" y="1336.5" width="495" height="165" stroke="#000000" stroke-width="4.58333" stroke-miterlimit="8" fill="#FFFFFF"/><text font-family="Arial,Arial_MSFontService,sans-serif" font-weight="400" font-size="37" transform="matrix(1 0 0 1 829.073 1411)">RAKE / SPINNER </text><text font-family="Arial,Arial_MSFontService,sans-serif" font-weight="400" font-size="37" transform="matrix(1 0 0 1 840.531 1455)">MOTOR SPEED</text><rect x="1084.5" y="1925.5" width="495" height="165" stroke="#000000" stroke-width="4.58333" stroke-miterlimit="8" fill="#FFFFFF"/><text font-family="Arial,Arial_MSFontService,sans-serif" font-weight="400" font-size="37" transform="matrix(1 0 0 1 1154.81 2022)">FEED</text><text font-family="Arial,Arial_MSFontService,sans-serif" font-weight="400" font-size="37" transform="matrix(1 0 0 1 1252.78 2022)">-</text><text font-family="Arial,Arial_MSFontService,sans-serif" font-weight="400" font-size="37" transform="matrix(1 0 0 1 1264.81 2022)">Z CONVEYOR</text><path d="M2.29154-0.0239598 3.05089 72.6011-1.53219 72.649-2.29154 0.0239598ZM14.4607 67.8982 0.99895 95.5405-13.0378 68.1857Z" transform="matrix(-1 0 0 1 1332.5 1830.5)"/><text font-family="Arial Narrow,Arial Narrow_MSFontService,sans-serif" font-weight="700" font-stretch="condensed" font-size="41" transform="matrix(1 0 0 1 1373.97 1864)">YES</text><text font-family="Arial Narrow,Arial Narrow_MSFontService,sans-serif" font-weight="700" font-stretch="condensed" font-size="41" transform="matrix(1 0 0 1 1598.32 1665)">NO</text><path d="M1085.5 1698.5 1333 1566.5 1580.5 1698.5 1333 1830.5Z" stroke="#000000" stroke-width="4.58333" stroke-miterlimit="8" fill="#FFFFFF" fill-rule="evenodd"/><text font-family="Arial,Arial_MSFontService,sans-serif" font-weight="400" font-size="37" transform="matrix(1 0 0 1 1182.16 1690)">FEED</text><text font-family="Arial,Arial_MSFontService,sans-serif" font-weight="400" font-size="37" transform="matrix(1 0 0 1 1280.13 1690)">-</text><text font-family="Arial,Arial_MSFontService,sans-serif" font-weight="400" font-size="37" transform="matrix(1 0 0 1 1292.16 1690)">Z Conveyor</text><text font-family="Arial,Arial_MSFontService,sans-serif" font-weight="400" font-size="37" transform="matrix(1 0 0 1 1254.05 1734)">Enabled?</text><rect x="969.5" y="1533.5" width="786" height="596" stroke="#E97132" stroke-width="4.58333" stroke-linejoin="round" stroke-miterlimit="10" stroke-dasharray="18.3333 13.75" fill="none"/><path d="M1224.5 1417.21 1335.24 1417.21 1335.24 1543.27 1330.66 1543.27 1330.66 1419.5 1332.95 1421.79 1224.5 1421.79ZM1346.7 1538.68 1332.95 1566.18 1319.2 1538.68Z"/><rect x="1084.5" y="2241.5" width="495" height="165" stroke="#000000" stroke-width="4.58333" stroke-miterlimit="8" fill="#FFFFFF"/><text font-family="Arial,Arial_MSFontService,sans-serif" font-weight="400" font-size="37" transform="matrix(1 0 0 1 1165.12 2315)">ENABLE</text><text font-family="Arial,Arial_MSFontService,sans-serif" font-weight="400" font-size="37" transform="matrix(1 0 0 1 1320.95 2315)">/</text><text font-family="Arial,Arial_MSFontService,sans-serif" font-weight="400" font-size="37" transform="matrix(1 0 0 1 1341.58 2315)">DISABLE</text><text font-family="Arial,Arial_MSFontService,sans-serif" font-weight="400" font-size="37" transform="matrix(1 0 0 1 1228.99 2359)">SKIP MOD</text><text font-family="Arial,Arial_MSFontService,sans-serif" font-weight="400" font-size="37" transform="matrix(1 0 0 1 1408.89 2359)">E</text><path d="M1333.79 2090.5 1333.79 2218.06 1329.21 2218.06 1329.21 2090.5ZM1345.25 2213.48 1331.5 2240.98 1317.75 2213.48Z"/><path d="M0 2.29167-253.929 2.29167-251.637 0-251.637 474.654-253.929 472.362 250.791 472.362 250.791 520.104 246.207 520.104 246.207 474.654 248.499 476.946-256.22 476.946-256.22-2.29167 0-2.29167ZM262.249 515.52 248.499 543.02 234.749 515.52Z" transform="matrix(-1 0 0 1 1580 1698.5)"/></g></svg>