<?xml version="1.0" encoding="UTF-8" standalone="no"?>
<svg
   width="370"
   height="519.93207"
   xml:space="preserve"
   overflow="hidden"
   version="1.1"
   id="svg2022"
   xmlns="http://www.w3.org/2000/svg"
   xmlns:svg="http://www.w3.org/2000/svg"><defs
     id="defs2026" /><g
     transform="matrix(0.26973257,0,0,0.26973257,-16.509908,-17.319025)"
     id="g2020"><path
       d="m 112.5,489.5 198,-132 198,132 -198,132 z"
       stroke="#000000"
       stroke-width="4.58333"
       stroke-miterlimit="8"
       fill="#ffffff"
       fill-rule="evenodd"
       id="path1910" /><text
       font-family="Arial, Arial_MSFontService, sans-serif"
       font-weight="700"
       font-size="41px"
       transform="translate(270.029,480)"
       id="text1912">Run</text><text
       font-family="Arial, Arial_MSFontService, sans-serif"
       font-weight="700"
       font-size="41px"
       transform="translate(188.675,530)"
       id="text1914">Production?</text><text
       font-family="'Arial Narrow', 'Arial Narrow_MSFontService', sans-serif"
       font-weight="700"
       font-stretch="condensed"
       font-size="41px"
       transform="translate(337.027,678)"
       id="text1916">YES</text><rect
       x="123.5"
       y="1824.5"
       width="330"
       height="165"
       stroke="#000000"
       stroke-width="4.58333"
       stroke-miterlimit="8"
       fill="#ffffff"
       id="rect1918" /><text
       font-family="Arial, Arial_MSFontService, sans-serif"
       font-weight="400"
       font-size="37px"
       transform="translate(216.439,1899)"
       id="text1920">SELECT</text><text
       font-family="Arial, Arial_MSFontService, sans-serif"
       font-weight="700"
       font-size="37px"
       transform="translate(169.735,1943)"
       id="text1922">PRIME </text><text
       font-family="Arial, Arial_MSFontService, sans-serif"
       font-weight="400"
       font-size="37px"
       transform="translate(296.35,1943)"
       id="text1924">MODE</text><rect
       x="858.5"
       y="1824.5"
       width="330"
       height="165"
       stroke="#000000"
       stroke-width="4.58333"
       stroke-miterlimit="8"
       fill="#ffffff"
       id="rect1926" /><text
       font-family="Arial, Arial_MSFontService, sans-serif"
       font-weight="400"
       font-size="37px"
       transform="translate(951.066,1899)"
       id="text1928">SELECT</text><text
       font-family="Arial, Arial_MSFontService, sans-serif"
       font-weight="700"
       font-size="37px"
       transform="translate(922.993,1943)"
       id="text1930">RUN </text><text
       font-family="Arial, Arial_MSFontService, sans-serif"
       font-weight="400"
       font-size="37px"
       transform="translate(1012.37,1943)"
       id="text1932">MODE</text><path
       d="M 0,-2.29167 H 171.222 V 112.508 h -4.584 V 0 l 2.292,2.29167 H 0 Z m 182.68,110.21667 -13.75,27.5 -13.75,-27.5 z"
       transform="matrix(-1,0,0,1,457.43,1689.5)"
       id="path1934" /><path
       d="m 853.5,1687.21 h 172 v 114.8 h -4.58 V 1689.5 l 2.29,2.29 H 853.5 Z m 183.46,110.21 -13.75,27.5 -13.75,-27.5 z"
       id="path1936" /><text
       font-family="'Arial Narrow', 'Arial Narrow_MSFontService', sans-serif"
       font-weight="700"
       font-stretch="condensed"
       font-size="41px"
       transform="translate(357.438,1663)"
       id="text1938">NO</text><text
       font-family="'Arial Narrow', 'Arial Narrow_MSFontService', sans-serif"
       font-weight="700"
       font-stretch="condensed"
       font-size="41px"
       transform="translate(908.73,1664)"
       id="text1940">YES</text><path
       d="M 0,-2.29167 H 737.839 V 344.84 l -2.292,-2.292 h 177.489 v 4.584 H 733.255 V 0 l 2.292,2.29167 H 0 Z M 908.453,331.09 l 27.5,13.75 -27.5,13.75 z"
       transform="matrix(0,1,1,0,310.5,621.5)"
       id="path1942" /><path
       d="m 63.5001,93.9998 c 0,-15.1878 12.3122,-27.5 27.5,-27.5 H 531 c 15.188,0 27.5,12.3122 27.5,27.5 V 204 c 0,15.188 -12.312,27.5 -27.5,27.5 H 91.0001 c -15.1878,0 -27.5,-12.312 -27.5,-27.5 z"
       stroke="#000000"
       stroke-width="4.58333"
       stroke-miterlimit="8"
       fill="#ffffff"
       fill-rule="evenodd"
       id="path1944" /><text
       font-family="Arial, Arial_MSFontService, sans-serif"
       font-style="italic"
       font-weight="400"
       font-size="37px"
       transform="translate(258.856,118)"
       id="text1946">Select </text><text
       font-family="Arial, Arial_MSFontService, sans-serif"
       font-style="italic"
       font-weight="400"
       font-size="37px"
       transform="translate(229.065,162)"
       id="text1948">Operating</text><text
       font-family="Arial, Arial_MSFontService, sans-serif"
       font-style="italic"
       font-weight="400"
       font-size="37px"
       transform="translate(264.013,206)"
       id="text1950">Mode</text><path
       d="m 735.791,837.429 4.216,136.414 -4.581,0.141 -4.217,-136.413 z m 15.528,131.479 -12.894,27.911 -14.593,-27.062 z"
       id="path1952" /><text
       font-family="'Arial Narrow', 'Arial Narrow_MSFontService', sans-serif"
       font-weight="700"
       font-stretch="condensed"
       font-size="41px"
       transform="translate(761.297,933)"
       id="text1954">YES</text><rect
       x="572.5"
       y="997.5"
       width="330"
       height="165"
       stroke="#000000"
       stroke-width="4.58333"
       stroke-miterlimit="8"
       fill="#ffffff"
       id="rect1956" /><text
       font-family="Arial, Arial_MSFontService, sans-serif"
       font-weight="400"
       font-size="37px"
       transform="translate(665.853,1071)"
       id="text1958">SELECT</text><text
       font-family="Arial, Arial_MSFontService, sans-serif"
       font-weight="700"
       font-size="37px"
       transform="translate(613.992,1115)"
       id="text1960">EMPTY </text><text
       font-family="Arial, Arial_MSFontService, sans-serif"
       font-weight="400"
       font-size="37px"
       transform="translate(750.92,1115)"
       id="text1962">MODE</text><path
       d="m 535.5,705.5 198,-132 198,132 -198,132 z"
       stroke="#000000"
       stroke-width="4.58333"
       stroke-miterlimit="8"
       fill="#ffffff"
       fill-rule="evenodd"
       id="path1964" /><text
       font-family="Arial, Arial_MSFontService, sans-serif"
       font-weight="700"
       font-size="41px"
       transform="translate(669.511,696)"
       id="text1966">Empty</text><text
       font-family="Arial, Arial_MSFontService, sans-serif"
       font-weight="700"
       font-size="41px"
       transform="translate(623.677,746)"
       id="text1968">Depositor</text><text
       font-family="Arial, Arial_MSFontService, sans-serif"
       font-weight="700"
       font-size="41px"
       transform="translate(816.177,746)"
       id="text1970">?</text><path
       d="m 508.5,487.208 h 226.69 v 63.438 h -4.583 V 489.5 l 2.291,2.292 H 508.5 Z m 238.148,58.855 -13.75,27.5 -13.75,-27.5 z"
       id="path1972" /><text
       font-family="'Arial Narrow', 'Arial Narrow_MSFontService', sans-serif"
       font-weight="700"
       font-stretch="condensed"
       font-size="41px"
       transform="translate(591.536,465)"
       id="text1974">NO</text><path
       d="m 457.5,1689.5 198,-132 198,132 -198,132 z"
       stroke="#000000"
       stroke-width="4.58333"
       stroke-miterlimit="8"
       fill="#ffffff"
       fill-rule="evenodd"
       id="path1976" /><text
       font-family="Arial, Arial_MSFontService, sans-serif"
       font-weight="700"
       font-size="41px"
       transform="translate(558.723,1680)"
       id="text1978">Depositor</text><text
       font-family="Arial, Arial_MSFontService, sans-serif"
       font-weight="700"
       font-size="41px"
       transform="translate(572.473,1730)"
       id="text1980">Primed?</text><path
       d="m 931.5,703.208 h 246.07 v 47.419 h -4.58 V 705.5 l 2.29,2.292 H 931.5 Z m 257.53,42.836 -13.75,27.5 -13.75,-27.5 z"
       id="path1982" /><text
       font-family="'Arial Narrow', 'Arial Narrow_MSFontService', sans-serif"
       font-weight="700"
       font-stretch="condensed"
       font-size="41px"
       transform="translate(1033.32,675)"
       id="text1984">NO</text><path
       d="m 1176.79,1037.43 4.22,136.41 -4.58,0.14 -4.22,-136.41 z m 15.53,131.48 -12.9,27.91 -14.59,-27.06 z"
       id="path1986" /><text
       font-family="'Arial Narrow', 'Arial Narrow_MSFontService', sans-serif"
       font-weight="700"
       font-stretch="condensed"
       font-size="41px"
       transform="translate(1203.08,1133)"
       id="text1988">YES</text><rect
       x="1014.5"
       y="1197.5"
       width="330"
       height="165"
       stroke="#000000"
       stroke-width="4.58333"
       stroke-miterlimit="8"
       fill="#ffffff"
       id="rect1990" /><text
       font-family="Arial, Arial_MSFontService, sans-serif"
       font-weight="400"
       font-size="37px"
       transform="translate(1107.62,1249)"
       id="text1992">SELECT</text><text
       font-family="Arial, Arial_MSFontService, sans-serif"
       font-weight="700"
       font-size="37px"
       transform="translate(1103.61,1293)"
       id="text1994">BYPASS </text><text
       font-family="Arial, Arial_MSFontService, sans-serif"
       font-weight="400"
       font-size="37px"
       transform="translate(1124.24,1337)"
       id="text1996">MODE</text><path
       d="m 976.5,905.5 198,-132 198,132 -198,132 z"
       stroke="#000000"
       stroke-width="4.58333"
       stroke-miterlimit="8"
       fill="#ffffff"
       fill-rule="evenodd"
       id="path1998" /><text
       font-family="Arial, Arial_MSFontService, sans-serif"
       font-weight="700"
       font-size="41px"
       transform="translate(1100.98,896)"
       id="text2000">Bypass </text><text
       font-family="Arial, Arial_MSFontService, sans-serif"
       font-weight="700"
       font-size="41px"
       transform="translate(1065.46,946)"
       id="text2002">Depositor</text><text
       font-family="Arial, Arial_MSFontService, sans-serif"
       font-weight="700"
       font-size="41px"
       transform="translate(1257.96,946)"
       id="text2004">?</text><path
       d="m 312.792,231.5 v 103.616 h -4.583 L 308.208,231.5 Z m 11.458,99.033 -13.75,27.5 -13.75,-27.5 z"
       id="path2006" /><path
       d="M 467.5,287.496 496.496,258.5 h 107.008 l 28.996,28.996 v 41.008 L 603.504,357.5 H 496.496 L 467.5,328.504 Z"
       stroke="#000000"
       stroke-width="6.875"
       stroke-miterlimit="8"
       fill="#ffffff"
       fill-rule="evenodd"
       id="path2008" /><text
       font-family="Arial, Arial_MSFontService, sans-serif"
       font-weight="700"
       font-size="37px"
       transform="translate(539.07,321)"
       id="text2010">1</text><path
       d="M 830.5,472.496 859.496,443.5 h 107.008 l 28.996,28.996 v 41.008 L 966.504,542.5 H 859.496 L 830.5,513.504 Z"
       stroke="#000000"
       stroke-width="6.875"
       stroke-miterlimit="8"
       fill="#ffffff"
       fill-rule="evenodd"
       id="path2012" /><text
       font-family="Arial, Arial_MSFontService, sans-serif"
       font-weight="700"
       font-size="37px"
       transform="translate(902.151,506)"
       id="text2014">2</text><path
       d="m 1264.5,687.496 29,-28.996 h 107 l 29,28.996 v 41.008 l -29,28.996 h -107 l -29,-28.996 z"
       stroke="#000000"
       stroke-width="6.875"
       stroke-miterlimit="8"
       fill="#ffffff"
       fill-rule="evenodd"
       id="path2016" /><text
       font-family="Arial, Arial_MSFontService, sans-serif"
       font-weight="700"
       font-size="37px"
       transform="translate(1336.02,721)"
       id="text2018">3</text></g></svg>
